%TF.GenerationSoftware,KiCad,Pcbnew,5.1.8+dfsg1-1+b1*%
%TF.CreationDate,2021-05-17T16:06:48-05:00*%
%TF.ProjectId,pmt-control,706d742d-636f-46e7-9472-6f6c2e6b6963,A*%
%TF.SameCoordinates,Original*%
%TF.FileFunction,Paste,Top*%
%TF.FilePolarity,Positive*%
%FSLAX46Y46*%
G04 Gerber Fmt 4.6, Leading zero omitted, Abs format (unit mm)*
G04 Created by KiCad (PCBNEW 5.1.8+dfsg1-1+b1) date 2021-05-17 16:06:48*
%MOMM*%
%LPD*%
G01*
G04 APERTURE LIST*
%ADD10R,2.500000X2.500000*%
%ADD11R,1.910000X0.910000*%
%ADD12R,1.600000X0.410000*%
%ADD13R,0.900000X2.800000*%
G04 APERTURE END LIST*
D10*
%TO.C,PS1*%
X59905000Y-94900000D03*
X70905000Y-94900000D03*
X70905000Y-82900000D03*
X59905000Y-82900000D03*
%TD*%
D11*
%TO.C,D6*%
X68305000Y-70530000D03*
X68305000Y-72980000D03*
X62505000Y-72980000D03*
X62505000Y-70530000D03*
%TD*%
%TO.C,R4*%
G36*
G01*
X129530001Y-85105000D02*
X128279999Y-85105000D01*
G75*
G02*
X128030000Y-84855001I0J249999D01*
G01*
X128030000Y-84054999D01*
G75*
G02*
X128279999Y-83805000I249999J0D01*
G01*
X129530001Y-83805000D01*
G75*
G02*
X129780000Y-84054999I0J-249999D01*
G01*
X129780000Y-84855001D01*
G75*
G02*
X129530001Y-85105000I-249999J0D01*
G01*
G37*
G36*
G01*
X129530001Y-88205000D02*
X128279999Y-88205000D01*
G75*
G02*
X128030000Y-87955001I0J249999D01*
G01*
X128030000Y-87154999D01*
G75*
G02*
X128279999Y-86905000I249999J0D01*
G01*
X129530001Y-86905000D01*
G75*
G02*
X129780000Y-87154999I0J-249999D01*
G01*
X129780000Y-87955001D01*
G75*
G02*
X129530001Y-88205000I-249999J0D01*
G01*
G37*
%TD*%
%TO.C,R3*%
G36*
G01*
X102225001Y-80380000D02*
X100974999Y-80380000D01*
G75*
G02*
X100725000Y-80130001I0J249999D01*
G01*
X100725000Y-79329999D01*
G75*
G02*
X100974999Y-79080000I249999J0D01*
G01*
X102225001Y-79080000D01*
G75*
G02*
X102475000Y-79329999I0J-249999D01*
G01*
X102475000Y-80130001D01*
G75*
G02*
X102225001Y-80380000I-249999J0D01*
G01*
G37*
G36*
G01*
X102225001Y-83480000D02*
X100974999Y-83480000D01*
G75*
G02*
X100725000Y-83230001I0J249999D01*
G01*
X100725000Y-82429999D01*
G75*
G02*
X100974999Y-82180000I249999J0D01*
G01*
X102225001Y-82180000D01*
G75*
G02*
X102475000Y-82429999I0J-249999D01*
G01*
X102475000Y-83230001D01*
G75*
G02*
X102225001Y-83480000I-249999J0D01*
G01*
G37*
%TD*%
%TO.C,C7*%
G36*
G01*
X90154998Y-80910000D02*
X91455002Y-80910000D01*
G75*
G02*
X91705000Y-81159998I0J-249998D01*
G01*
X91705000Y-81985002D01*
G75*
G02*
X91455002Y-82235000I-249998J0D01*
G01*
X90154998Y-82235000D01*
G75*
G02*
X89905000Y-81985002I0J249998D01*
G01*
X89905000Y-81159998D01*
G75*
G02*
X90154998Y-80910000I249998J0D01*
G01*
G37*
G36*
G01*
X90154998Y-77785000D02*
X91455002Y-77785000D01*
G75*
G02*
X91705000Y-78034998I0J-249998D01*
G01*
X91705000Y-78860002D01*
G75*
G02*
X91455002Y-79110000I-249998J0D01*
G01*
X90154998Y-79110000D01*
G75*
G02*
X89905000Y-78860002I0J249998D01*
G01*
X89905000Y-78034998D01*
G75*
G02*
X90154998Y-77785000I249998J0D01*
G01*
G37*
%TD*%
%TO.C,C6*%
G36*
G01*
X121020000Y-78089998D02*
X121020000Y-79390002D01*
G75*
G02*
X120770002Y-79640000I-249998J0D01*
G01*
X119944998Y-79640000D01*
G75*
G02*
X119695000Y-79390002I0J249998D01*
G01*
X119695000Y-78089998D01*
G75*
G02*
X119944998Y-77840000I249998J0D01*
G01*
X120770002Y-77840000D01*
G75*
G02*
X121020000Y-78089998I0J-249998D01*
G01*
G37*
G36*
G01*
X124145000Y-78089998D02*
X124145000Y-79390002D01*
G75*
G02*
X123895002Y-79640000I-249998J0D01*
G01*
X123069998Y-79640000D01*
G75*
G02*
X122820000Y-79390002I0J249998D01*
G01*
X122820000Y-78089998D01*
G75*
G02*
X123069998Y-77840000I249998J0D01*
G01*
X123895002Y-77840000D01*
G75*
G02*
X124145000Y-78089998I0J-249998D01*
G01*
G37*
%TD*%
%TO.C,C5*%
G36*
G01*
X121020000Y-81899998D02*
X121020000Y-83200002D01*
G75*
G02*
X120770002Y-83450000I-249998J0D01*
G01*
X119944998Y-83450000D01*
G75*
G02*
X119695000Y-83200002I0J249998D01*
G01*
X119695000Y-81899998D01*
G75*
G02*
X119944998Y-81650000I249998J0D01*
G01*
X120770002Y-81650000D01*
G75*
G02*
X121020000Y-81899998I0J-249998D01*
G01*
G37*
G36*
G01*
X124145000Y-81899998D02*
X124145000Y-83200002D01*
G75*
G02*
X123895002Y-83450000I-249998J0D01*
G01*
X123069998Y-83450000D01*
G75*
G02*
X122820000Y-83200002I0J249998D01*
G01*
X122820000Y-81899998D01*
G75*
G02*
X123069998Y-81650000I249998J0D01*
G01*
X123895002Y-81650000D01*
G75*
G02*
X124145000Y-81899998I0J-249998D01*
G01*
G37*
%TD*%
%TO.C,R2*%
G36*
G01*
X85385000Y-71764999D02*
X85385000Y-73015001D01*
G75*
G02*
X85135001Y-73265000I-249999J0D01*
G01*
X84334999Y-73265000D01*
G75*
G02*
X84085000Y-73015001I0J249999D01*
G01*
X84085000Y-71764999D01*
G75*
G02*
X84334999Y-71515000I249999J0D01*
G01*
X85135001Y-71515000D01*
G75*
G02*
X85385000Y-71764999I0J-249999D01*
G01*
G37*
G36*
G01*
X82285000Y-71764999D02*
X82285000Y-73015001D01*
G75*
G02*
X82035001Y-73265000I-249999J0D01*
G01*
X81234999Y-73265000D01*
G75*
G02*
X80985000Y-73015001I0J249999D01*
G01*
X80985000Y-71764999D01*
G75*
G02*
X81234999Y-71515000I249999J0D01*
G01*
X82035001Y-71515000D01*
G75*
G02*
X82285000Y-71764999I0J-249999D01*
G01*
G37*
%TD*%
%TO.C,R1*%
G36*
G01*
X68950000Y-100974999D02*
X68950000Y-102225001D01*
G75*
G02*
X68700001Y-102475000I-249999J0D01*
G01*
X67899999Y-102475000D01*
G75*
G02*
X67650000Y-102225001I0J249999D01*
G01*
X67650000Y-100974999D01*
G75*
G02*
X67899999Y-100725000I249999J0D01*
G01*
X68700001Y-100725000D01*
G75*
G02*
X68950000Y-100974999I0J-249999D01*
G01*
G37*
G36*
G01*
X72050000Y-100974999D02*
X72050000Y-102225001D01*
G75*
G02*
X71800001Y-102475000I-249999J0D01*
G01*
X70999999Y-102475000D01*
G75*
G02*
X70750000Y-102225001I0J249999D01*
G01*
X70750000Y-100974999D01*
G75*
G02*
X70999999Y-100725000I249999J0D01*
G01*
X71800001Y-100725000D01*
G75*
G02*
X72050000Y-100974999I0J-249999D01*
G01*
G37*
%TD*%
%TO.C,D1*%
G36*
G01*
X64275000Y-102225000D02*
X64275000Y-100975000D01*
G75*
G02*
X64525000Y-100725000I250000J0D01*
G01*
X65450000Y-100725000D01*
G75*
G02*
X65700000Y-100975000I0J-250000D01*
G01*
X65700000Y-102225000D01*
G75*
G02*
X65450000Y-102475000I-250000J0D01*
G01*
X64525000Y-102475000D01*
G75*
G02*
X64275000Y-102225000I0J250000D01*
G01*
G37*
G36*
G01*
X61300000Y-102225000D02*
X61300000Y-100975000D01*
G75*
G02*
X61550000Y-100725000I250000J0D01*
G01*
X62475000Y-100725000D01*
G75*
G02*
X62725000Y-100975000I0J-250000D01*
G01*
X62725000Y-102225000D01*
G75*
G02*
X62475000Y-102475000I-250000J0D01*
G01*
X61550000Y-102475000D01*
G75*
G02*
X61300000Y-102225000I0J250000D01*
G01*
G37*
%TD*%
%TO.C,C4*%
G36*
G01*
X97805003Y-62600000D02*
X96504997Y-62600000D01*
G75*
G02*
X96255000Y-62350003I0J249997D01*
G01*
X96255000Y-61524997D01*
G75*
G02*
X96504997Y-61275000I249997J0D01*
G01*
X97805003Y-61275000D01*
G75*
G02*
X98055000Y-61524997I0J-249997D01*
G01*
X98055000Y-62350003D01*
G75*
G02*
X97805003Y-62600000I-249997J0D01*
G01*
G37*
G36*
G01*
X97805003Y-65725000D02*
X96504997Y-65725000D01*
G75*
G02*
X96255000Y-65475003I0J249997D01*
G01*
X96255000Y-64649997D01*
G75*
G02*
X96504997Y-64400000I249997J0D01*
G01*
X97805003Y-64400000D01*
G75*
G02*
X98055000Y-64649997I0J-249997D01*
G01*
X98055000Y-65475003D01*
G75*
G02*
X97805003Y-65725000I-249997J0D01*
G01*
G37*
%TD*%
%TO.C,C3*%
G36*
G01*
X93329997Y-77735000D02*
X94630003Y-77735000D01*
G75*
G02*
X94880000Y-77984997I0J-249997D01*
G01*
X94880000Y-78810003D01*
G75*
G02*
X94630003Y-79060000I-249997J0D01*
G01*
X93329997Y-79060000D01*
G75*
G02*
X93080000Y-78810003I0J249997D01*
G01*
X93080000Y-77984997D01*
G75*
G02*
X93329997Y-77735000I249997J0D01*
G01*
G37*
G36*
G01*
X93329997Y-74610000D02*
X94630003Y-74610000D01*
G75*
G02*
X94880000Y-74859997I0J-249997D01*
G01*
X94880000Y-75685003D01*
G75*
G02*
X94630003Y-75935000I-249997J0D01*
G01*
X93329997Y-75935000D01*
G75*
G02*
X93080000Y-75685003I0J249997D01*
G01*
X93080000Y-74859997D01*
G75*
G02*
X93329997Y-74610000I249997J0D01*
G01*
G37*
%TD*%
%TO.C,C2*%
G36*
G01*
X75580003Y-92445000D02*
X74279997Y-92445000D01*
G75*
G02*
X74030000Y-92195003I0J249997D01*
G01*
X74030000Y-91369997D01*
G75*
G02*
X74279997Y-91120000I249997J0D01*
G01*
X75580003Y-91120000D01*
G75*
G02*
X75830000Y-91369997I0J-249997D01*
G01*
X75830000Y-92195003D01*
G75*
G02*
X75580003Y-92445000I-249997J0D01*
G01*
G37*
G36*
G01*
X75580003Y-95570000D02*
X74279997Y-95570000D01*
G75*
G02*
X74030000Y-95320003I0J249997D01*
G01*
X74030000Y-94494997D01*
G75*
G02*
X74279997Y-94245000I249997J0D01*
G01*
X75580003Y-94245000D01*
G75*
G02*
X75830000Y-94494997I0J-249997D01*
G01*
X75830000Y-95320003D01*
G75*
G02*
X75580003Y-95570000I-249997J0D01*
G01*
G37*
%TD*%
%TO.C,C1*%
G36*
G01*
X62495000Y-79390003D02*
X62495000Y-78089997D01*
G75*
G02*
X62744997Y-77840000I249997J0D01*
G01*
X63570003Y-77840000D01*
G75*
G02*
X63820000Y-78089997I0J-249997D01*
G01*
X63820000Y-79390003D01*
G75*
G02*
X63570003Y-79640000I-249997J0D01*
G01*
X62744997Y-79640000D01*
G75*
G02*
X62495000Y-79390003I0J249997D01*
G01*
G37*
G36*
G01*
X59370000Y-79390003D02*
X59370000Y-78089997D01*
G75*
G02*
X59619997Y-77840000I249997J0D01*
G01*
X60445003Y-77840000D01*
G75*
G02*
X60695000Y-78089997I0J-249997D01*
G01*
X60695000Y-79390003D01*
G75*
G02*
X60445003Y-79640000I-249997J0D01*
G01*
X59619997Y-79640000D01*
G75*
G02*
X59370000Y-79390003I0J249997D01*
G01*
G37*
%TD*%
D12*
%TO.C,U3*%
X94094300Y-68580000D03*
X94094300Y-69215000D03*
X94094300Y-69850000D03*
X94094300Y-70485000D03*
X94094300Y-71120000D03*
X94094300Y-71755000D03*
X94094300Y-72390000D03*
X94094300Y-73025000D03*
X88785700Y-73025000D03*
X88785700Y-72390000D03*
X88785700Y-71755000D03*
X88785700Y-71120000D03*
X88785700Y-70485000D03*
X88785700Y-69850000D03*
X88785700Y-69215000D03*
X88785700Y-68580000D03*
%TD*%
%TO.C,U2*%
G36*
G01*
X91700000Y-102385000D02*
X91700000Y-102085000D01*
G75*
G02*
X91850000Y-101935000I150000J0D01*
G01*
X93150000Y-101935000D01*
G75*
G02*
X93300000Y-102085000I0J-150000D01*
G01*
X93300000Y-102385000D01*
G75*
G02*
X93150000Y-102535000I-150000J0D01*
G01*
X91850000Y-102535000D01*
G75*
G02*
X91700000Y-102385000I0J150000D01*
G01*
G37*
G36*
G01*
X91700000Y-103655000D02*
X91700000Y-103355000D01*
G75*
G02*
X91850000Y-103205000I150000J0D01*
G01*
X93150000Y-103205000D01*
G75*
G02*
X93300000Y-103355000I0J-150000D01*
G01*
X93300000Y-103655000D01*
G75*
G02*
X93150000Y-103805000I-150000J0D01*
G01*
X91850000Y-103805000D01*
G75*
G02*
X91700000Y-103655000I0J150000D01*
G01*
G37*
G36*
G01*
X91700000Y-104925000D02*
X91700000Y-104625000D01*
G75*
G02*
X91850000Y-104475000I150000J0D01*
G01*
X93150000Y-104475000D01*
G75*
G02*
X93300000Y-104625000I0J-150000D01*
G01*
X93300000Y-104925000D01*
G75*
G02*
X93150000Y-105075000I-150000J0D01*
G01*
X91850000Y-105075000D01*
G75*
G02*
X91700000Y-104925000I0J150000D01*
G01*
G37*
G36*
G01*
X91700000Y-106195000D02*
X91700000Y-105895000D01*
G75*
G02*
X91850000Y-105745000I150000J0D01*
G01*
X93150000Y-105745000D01*
G75*
G02*
X93300000Y-105895000I0J-150000D01*
G01*
X93300000Y-106195000D01*
G75*
G02*
X93150000Y-106345000I-150000J0D01*
G01*
X91850000Y-106345000D01*
G75*
G02*
X91700000Y-106195000I0J150000D01*
G01*
G37*
G36*
G01*
X84500000Y-106195000D02*
X84500000Y-105895000D01*
G75*
G02*
X84650000Y-105745000I150000J0D01*
G01*
X85950000Y-105745000D01*
G75*
G02*
X86100000Y-105895000I0J-150000D01*
G01*
X86100000Y-106195000D01*
G75*
G02*
X85950000Y-106345000I-150000J0D01*
G01*
X84650000Y-106345000D01*
G75*
G02*
X84500000Y-106195000I0J150000D01*
G01*
G37*
G36*
G01*
X84500000Y-104925000D02*
X84500000Y-104625000D01*
G75*
G02*
X84650000Y-104475000I150000J0D01*
G01*
X85950000Y-104475000D01*
G75*
G02*
X86100000Y-104625000I0J-150000D01*
G01*
X86100000Y-104925000D01*
G75*
G02*
X85950000Y-105075000I-150000J0D01*
G01*
X84650000Y-105075000D01*
G75*
G02*
X84500000Y-104925000I0J150000D01*
G01*
G37*
G36*
G01*
X84500000Y-103655000D02*
X84500000Y-103355000D01*
G75*
G02*
X84650000Y-103205000I150000J0D01*
G01*
X85950000Y-103205000D01*
G75*
G02*
X86100000Y-103355000I0J-150000D01*
G01*
X86100000Y-103655000D01*
G75*
G02*
X85950000Y-103805000I-150000J0D01*
G01*
X84650000Y-103805000D01*
G75*
G02*
X84500000Y-103655000I0J150000D01*
G01*
G37*
G36*
G01*
X84500000Y-102385000D02*
X84500000Y-102085000D01*
G75*
G02*
X84650000Y-101935000I150000J0D01*
G01*
X85950000Y-101935000D01*
G75*
G02*
X86100000Y-102085000I0J-150000D01*
G01*
X86100000Y-102385000D01*
G75*
G02*
X85950000Y-102535000I-150000J0D01*
G01*
X84650000Y-102535000D01*
G75*
G02*
X84500000Y-102385000I0J150000D01*
G01*
G37*
%TD*%
D13*
%TO.C,D5*%
X124460000Y-64850000D03*
X125900000Y-64850000D03*
X127340000Y-64850000D03*
X128780000Y-64850000D03*
X130220000Y-64850000D03*
X130220000Y-74850000D03*
X128780000Y-74850000D03*
X127340000Y-74850000D03*
X125900000Y-74850000D03*
X124460000Y-74850000D03*
%TD*%
%TO.C,D4*%
X116840000Y-64850000D03*
X118280000Y-64850000D03*
X119720000Y-64850000D03*
X121160000Y-64850000D03*
X122600000Y-64850000D03*
X122600000Y-74850000D03*
X121160000Y-74850000D03*
X119720000Y-74850000D03*
X118280000Y-74850000D03*
X116840000Y-74850000D03*
%TD*%
%TO.C,D3*%
X109220000Y-64850000D03*
X110660000Y-64850000D03*
X112100000Y-64850000D03*
X113540000Y-64850000D03*
X114980000Y-64850000D03*
X114980000Y-74850000D03*
X113540000Y-74850000D03*
X112100000Y-74850000D03*
X110660000Y-74850000D03*
X109220000Y-74850000D03*
%TD*%
%TO.C,D2*%
X101600000Y-64850000D03*
X103040000Y-64850000D03*
X104480000Y-64850000D03*
X105920000Y-64850000D03*
X107360000Y-64850000D03*
X107360000Y-74850000D03*
X105920000Y-74850000D03*
X104480000Y-74850000D03*
X103040000Y-74850000D03*
X101600000Y-74850000D03*
%TD*%
M02*
